<?xml version="1.0" encoding="utf-8"?>
<!-- Generator: Adobe Illustrator 24.3.0, SVG Export Plug-In . SVG Version: 6.00 Build 0)  -->
<svg version="1.1" id="Layer_1" xmlns="http://www.w3.org/2000/svg" xmlns:xlink="http://www.w3.org/1999/xlink" x="0px" y="0px"
	 viewBox="0 0 360 360" style="enable-background:new 0 0 360 360;" xml:space="preserve">
<style type="text/css">
	.st0{fill-rule:evenodd;clip-rule:evenodd;}
</style>
<path class="st0" d="M298.74,243.27c-19.66,0-35.59-15.93-35.59-35.59c0-19.65,15.93-35.59,35.59-35.59s35.59,15.94,35.59,35.59
	C334.34,227.34,318.4,243.27,298.74,243.27z M194.84,127.16c-30.47,0-55.18-24.66-55.18-55.08c0-30.43,24.71-55.08,55.18-55.08
	c30.48,0,55.18,24.66,55.18,55.08C250.02,102.5,225.32,127.16,194.84,127.16z M180.89,266.46c0,42.83-34.72,77.54-77.55,77.54
	c-42.82,0-77.54-34.72-77.54-77.54s34.72-77.54,77.54-77.54C146.17,188.91,180.89,223.63,180.89,266.46z"/>
</svg>
