<svg id="Design" xmlns="http://www.w3.org/2000/svg" viewBox="0 0 52 52"><defs><style>.cls-1{fill:#333033;}</style></defs><path class="cls-1" d="M36.42,20.76c-7.82,0-7.83,7.78-7.83,7.82s-.53,7.8,7.83,7.8c0,0,6.29.36,6.92-4.6a.73.73,0,0,0-.72-.83H40.43a.72.72,0,0,0-.69.51c-.2.65-.87,1.69-3.2,1.69A3.32,3.32,0,0,1,33,30.44a.72.72,0,0,1,.72-.83h9.09a.73.73,0,0,0,.73-.7C43.63,26.82,43.25,20.76,36.42,20.76Zm-3,6.12a.43.43,0,0,1-.41-.56,3.5,3.5,0,0,1,3.45-2.58,2.88,2.88,0,0,1,3.06,2.65.42.42,0,0,1-.42.49Zm-9.39-1.82a.3.3,0,0,1-.05-.55A3.62,3.62,0,0,0,25.92,21c0-3.64-2.54-5.42-5.76-5.42H10.09a.54.54,0,0,0-.54.53V35.42a.54.54,0,0,0,.54.53H20.15s6.48.2,6.48-6C26.63,29.93,26.85,26,24.07,25.06Zm-9.85-5.48a.39.39,0,0,1,.39-.39h5.55s1.43,0,1.43,2.12-.84,2.43-1.8,2.43H14.61a.39.39,0,0,1-.39-.38Zm5.64,12.75H14.61a.39.39,0,0,1-.39-.38V27.26a.39.39,0,0,1,.39-.38h5.55s2.15,0,2.14,2.8C22.3,32.07,20.7,32.31,19.86,32.33ZM32,16.38v1.75a.38.38,0,0,0,.39.38h7.64a.39.39,0,0,0,.39-.38V16.38a.39.39,0,0,0-.39-.38H32.42A.38.38,0,0,0,32,16.38Z"/></svg>