<svg id="Design" xmlns="http://www.w3.org/2000/svg" viewBox="0 0 52 52"><defs><style>.cls-1{fill:#333033;}</style></defs><path class="cls-1" d="M42.26,27.64V38.32a.47.47,0,0,1-.48.48H36.27a.47.47,0,0,1-.48-.48V28.39c0-2.61-.93-4.4-3.28-4.4a3.52,3.52,0,0,0-3.31,2.37A4.38,4.38,0,0,0,29,27.93V38.32a.47.47,0,0,1-.48.48H23a.48.48,0,0,1-.48-.48c0-2.64.07-15.48,0-18.49a.47.47,0,0,1,.47-.49h5.5a.48.48,0,0,1,.48.48V22.1l0,.06h0V22.1a6.42,6.42,0,0,1,5.83-3.21c4.26,0,7.45,2.78,7.45,8.75ZM13,38.8h5.51a.47.47,0,0,0,.47-.48V19.82a.48.48,0,0,0-.47-.48H13a.48.48,0,0,0-.48.48v18.5A.47.47,0,0,0,13,38.8Z"/><path class="cls-1" d="M19,13.4a3.47,3.47,0,1,1-3.46-3.46A3.46,3.46,0,0,1,19,13.4Z"/></svg>