<svg id="Design" xmlns="http://www.w3.org/2000/svg" viewBox="0 0 52 52"><defs><style>.cls-1{fill:#333033;}</style></defs><path class="cls-1" d="M35.18,14.5a2.11,2.11,0,1,0,2.11,2.11A2.12,2.12,0,0,0,35.18,14.5Zm-9.36,2.7a8.85,8.85,0,1,0,8.84,8.85A8.86,8.86,0,0,0,25.82,17.2Zm0,14.52a5.67,5.67,0,1,1,5.66-5.67A5.67,5.67,0,0,1,25.82,31.72Zm17.85-13A10.79,10.79,0,0,0,32.88,7.91H18.63A10.79,10.79,0,0,0,7.84,18.7V32.94a10.8,10.8,0,0,0,10.79,10.8H32.88a10.8,10.8,0,0,0,10.79-10.8ZM40.29,32.94a7.42,7.42,0,0,1-7.41,7.42H18.63a7.42,7.42,0,0,1-7.41-7.42V18.7a7.41,7.41,0,0,1,7.41-7.41H32.88a7.41,7.41,0,0,1,7.41,7.41Z"/></svg>